<?xml version="1.0" encoding="iso-8859-1"?>
<!-- Generator: Adobe Illustrator 19.0.0, SVG Export Plug-In . SVG Version: 6.00 Build 0)  -->
<svg version="1.1" id="Layer_1" xmlns="http://www.w3.org/2000/svg" xmlns:xlink="http://www.w3.org/1999/xlink" x="0px" y="0px"
	 viewBox="0 0 511.984 511.984" style="enable-background:new 0 0 511.984 511.984;" xml:space="preserve">
<path style="fill:#434A54;" d="M470.61,490.642c-5.891,0-10.656-4.75-10.656-10.656s4.766-10.654,10.656-10.654
	c7.531,0,12.156-12.938,14.266-20.656c9.562-35.125,7.172-106.404-6.25-185.965c-5.891-34.983-13.453-67.983-21.297-92.919
	c-10.266-32.734-17.469-40.421-19.078-41.827c-5.234-0.672-9.297-5.156-9.297-10.578c0-5.891,4.781-10.672,10.672-10.672
	c11.25,0,20.547,10.547,30.109,34.187c7.031,17.343,14.125,41.64,20.562,70.28c13.374,59.655,21.687,128.247,21.687,178.995
	c0,28.5-2.5,51.156-7.469,67.375C499.89,472.642,490.266,490.642,470.61,490.642z"/>
<path style="fill:#DA4453;" d="M309.333,21.341H53.33c-2.828,0-5.539,1.125-7.539,3.125L3.128,67.121
	c-3.601,3.594-4.156,9.235-1.336,13.469l42.663,63.998c1.984,2.969,5.312,4.75,8.875,4.75h127.997
	c0,70.577,57.42,127.998,128.005,127.998c70.576,0,127.996-57.421,127.996-127.998C437.329,78.762,379.909,21.341,309.333,21.341z"
	/>
<path style="fill:#434A54;" d="M309.333,21.341h-68.421l-45.788,45.78c-4.164,4.172-4.164,10.922,0,15.094
	c2.078,2.078,4.812,3.125,7.539,3.125c2.484,0,47.39-0.875,57.053-2.594c1.992,1.719,4.469,2.594,6.945,2.594
	c2.734,0,5.453-1.047,7.547-3.125l58.687-58.702C325.254,22.091,317.38,21.341,309.333,21.341z"/>
<path style="fill:#FFCE54;" d="M437.329,85.34h-63.998c0,0,23.969,17.765,37.968,63.998h26.03c17.672,0,32-14.328,32-31.999
	S455.001,85.34,437.329,85.34z"/>
<path style="fill:#434A54;" d="M470.61,490.642c-13.531,0-25.203-8.656-34.672-25.717c-7.28-13.125-13.499-31.688-18.499-55.156
	c-8.562-40.123-13.468-95.154-13.468-150.965c0-38.765,2.391-74.545,6.702-100.779c2.344-14.141,5.203-25.343,8.531-33.296
	c5.031-11.953,11.89-18.016,20.421-18.016c5.891,0,10.672,4.781,10.672,10.672c0,5.203-3.719,9.531-8.656,10.484
	c-1.531,2-6.688,10.625-10.922,40.155c-3.39,23.655-5.312,54.905-5.405,87.998c-0.234,74.498,8.296,144.527,22.249,182.746
	c7.094,19.406,15.484,30.562,23.047,30.562c5.891,0,10.656,4.748,10.656,10.654S476.501,490.642,470.61,490.642z"/>
<path style="fill:#ED5564;" d="M266.661,63.996H10.667c-5.891,0-10.664,4.781-10.664,10.672v106.669
	c0,5.89,4.773,10.656,10.664,10.656h127.997c0,70.577,57.42,127.997,127.997,127.997s127.998-57.42,127.998-127.997
	C394.659,121.418,337.238,63.996,266.661,63.996z"/>
<path style="fill:#FFCE54;" d="M266.661,138.667c-29.405,0-53.334,23.921-53.334,53.327s23.929,53.343,53.334,53.343
	c29.406,0,53.328-23.937,53.328-53.343S296.067,138.667,266.661,138.667z"/>
<g>
</g>
<g>
</g>
<g>
</g>
<g>
</g>
<g>
</g>
<g>
</g>
<g>
</g>
<g>
</g>
<g>
</g>
<g>
</g>
<g>
</g>
<g>
</g>
<g>
</g>
<g>
</g>
<g>
</g>
</svg>
