<?xml version="1.0"?>
<svg xmlns="http://www.w3.org/2000/svg" xmlns:xlink="http://www.w3.org/1999/xlink" xmlns:svgjs="http://svgjs.com/svgjs" version="1.1" width="512" height="512" x="0" y="0" viewBox="0 0 468.293 468.293" style="enable-background:new 0 0 512 512" xml:space="preserve" class=""><g>
<path xmlns="http://www.w3.org/2000/svg" style="" d="M206.049,72.574V55.559c0-10.345-8.386-18.732-18.732-18.732H18.732C8.386,36.827,0,45.213,0,55.559  v110.248h468.293v-62.013c0-10.345-8.386-18.732-18.732-18.732H218.537C211.64,85.062,206.049,79.471,206.049,72.574z" fill="#e1e1e1" data-original="#f6c358"/>
<path xmlns="http://www.w3.org/2000/svg" style="" d="M443.317,431.466H24.976C11.182,431.466,0,420.284,0,406.49V161.35h206.748  c5.268,0,10.293-2.218,13.842-6.111l23.013-25.241c3.549-3.893,8.574-6.111,13.842-6.111h210.848V406.49  C468.293,420.284,457.111,431.466,443.317,431.466z" fill="#ededed" data-original="#fcd462" class=""/>
<g xmlns="http://www.w3.org/2000/svg">
</g>
<g xmlns="http://www.w3.org/2000/svg">
</g>
<g xmlns="http://www.w3.org/2000/svg">
</g>
<g xmlns="http://www.w3.org/2000/svg">
</g>
<g xmlns="http://www.w3.org/2000/svg">
</g>
<g xmlns="http://www.w3.org/2000/svg">
</g>
<g xmlns="http://www.w3.org/2000/svg">
</g>
<g xmlns="http://www.w3.org/2000/svg">
</g>
<g xmlns="http://www.w3.org/2000/svg">
</g>
<g xmlns="http://www.w3.org/2000/svg">
</g>
<g xmlns="http://www.w3.org/2000/svg">
</g>
<g xmlns="http://www.w3.org/2000/svg">
</g>
<g xmlns="http://www.w3.org/2000/svg">
</g>
<g xmlns="http://www.w3.org/2000/svg">
</g>
<g xmlns="http://www.w3.org/2000/svg">
</g>
</g></svg>
